<?xml version="1.0" encoding="utf-8"?>
<!-- Generator: Adobe Illustrator 20.1.0, SVG Export Plug-In . SVG Version: 6.00 Build 0)  -->
<svg version="1.1" id="Layer_1" xmlns="http://www.w3.org/2000/svg" xmlns:xlink="http://www.w3.org/1999/xlink" x="0px" y="0px"
	 viewBox="0 0 374.6 217.4" style="enable-background:new 0 0 374.6 217.4;" xml:space="preserve">
<style type="text/css">
	.st0{fill:#171717;}
	.st1{fill:#FFFFFF;}
	.st2{fill:#EE3E46;}
</style>
<g transform="translate(-4165 -1167)">
	<path class="st0" d="M4180.1,1333.3c-0.1,1-0.2,2-0.5,2.9c-0.3,1.3-0.7,2.8-1.2,4.5s-1,3.5-1.6,5.5s-1.1,4-1.6,6.1
		s-0.9,4.1-1.2,6.1c-0.3,1.8-0.5,3.7-0.5,5.5c0,1.3,0.1,2.6,0.3,3.9c0.2,1.1,0.4,2.1,0.9,3.1c0.3,0.8,0.8,1.5,1.5,2.1
		c0.6,0.5,1.3,0.8,2.1,0.8c0.8,0,1.6-0.2,2.3-0.7c0.8-0.5,1.6-1.2,2.2-1.9c0.8-0.9,1.4-1.9,2-2.9c0.6-1.1,1.3-2.4,1.9-3.7
		s1.2-2.7,1.7-4.2s1-2.9,1.5-4.4c1.8-5.9,3.3-11.8,4.4-17.8c0.2-0.9,0.5-1.8,0.8-2.7c0.3-0.6,0.7-1.2,1.2-1.7c0.4-0.4,1-0.7,1.6-0.9
		c0.7-0.2,1.4-0.3,2.1-0.3c0.6,0,1.2,0.1,1.8,0.2c0.4,0.1,0.8,0.3,1.1,0.6c0.3,0.2,0.5,0.5,0.6,0.8c0.1,0.4,0.2,0.7,0.2,1.1
		c0,0.1-0.1,0.7-0.2,1.7l-0.6,3.9c-0.2,1.6-0.5,3.4-0.8,5.3c-0.3,2-0.5,4-0.8,6.1c-0.2,2.1-0.4,4.2-0.6,6.2
		c-0.2,2.1-0.2,3.9-0.2,5.7c0,1.8,0.1,3.3,0.2,4.8c0.1,1.2,0.3,2.4,0.6,3.6c0.2,0.8,0.6,1.6,1.2,2.3c0.5,0.5,1.1,0.8,1.8,0.8
		c1.3,0,2.5-0.5,3.4-1.5c1.1-1.1,2.1-2.5,2.8-3.9c0.9-1.8,1.7-3.7,2.3-5.7c0.7-2.1,1.3-4.4,1.8-6.7c0.5-2.3,1-4.7,1.3-7.1
		c0.4-2.4,0.7-4.6,1-6.8s0.5-4,0.6-5.7s0.2-3,0.3-4c0-0.8,0.2-1.6,0.5-2.4c0.3-0.6,0.7-1,1.2-1.4c0.5-0.3,1-0.6,1.6-0.7
		s1.2-0.2,1.8-0.2c0.4,0,0.9,0,1.3,0.2c0.4,0.1,0.7,0.3,1,0.6c0.3,0.3,0.5,0.7,0.7,1.1c0.2,0.5,0.3,1.1,0.2,1.7
		c0,2.1-0.1,4.1-0.4,6.1c-0.2,2.2-0.5,4.4-0.9,6.6s-0.8,4.4-1.2,6.4c-0.4,2.1-0.8,4-1.2,5.7s-0.7,3.1-0.9,4.2
		c-0.2,0.7-0.3,1.5-0.4,2.2c0,0.7,0.1,1.3,0.3,1.9c0.2,0.5,0.5,1,0.9,1.3c0.4,0.4,0.8,0.6,1.3,0.8c0.5,0.2,1.1,0.2,1.6,0.2
		c0.6,0,1.2-0.1,1.7-0.4c0.6-0.3,1.2-0.7,1.7-1.1c0.6-0.5,1.1-1.1,1.5-1.7c0.5-0.7,0.9-1.4,1.2-2.2l0.5,6.1
		c-1.3,1.5-2.8,2.8-4.5,3.9c-1.3,0.9-2.8,1.4-4.3,1.4c-0.6,0-1.2-0.1-1.8-0.3c-0.6-0.2-1.1-0.5-1.5-1c-0.5-0.5-0.8-1-1.1-1.7
		c-0.3-0.8-0.5-1.6-0.6-2.4c-0.9,1.7-2,3.4-3.1,4.9c-1,1.4-2.2,2.6-3.6,3.7c-1.2,1-2.5,1.8-4,2.4c-1.4,0.6-2.8,0.8-4.3,0.8
		c-1.7,0.1-3.4-0.5-4.7-1.5c-1.4-1.1-2.4-2.4-3.2-4c-0.9-1.9-1.5-3.9-1.8-5.9c-0.4-2.4-0.6-4.8-0.6-7.2c0-0.9,0-1.8,0.1-2.6
		c0.1-0.8,0.2-1.6,0.2-2.2c-0.5,3.8-1.4,7.5-2.7,11.2c-0.9,2.6-2.1,5-3.8,7.2c-1.3,1.7-3,3-4.9,3.9c-1.9,0.8-4,1.2-6.1,1.2
		c-1.3,0-2.6-0.5-3.7-1.3c-1.3-1-2.4-2.3-3.1-3.8c-1-2-1.7-4.1-2.1-6.3c-0.6-2.9-0.8-5.9-0.8-8.9c0-2.1,0.1-4.3,0.4-6.4
		c0.2-2.2,0.6-4.4,1-6.5c0.4-2.2,1-4.4,1.6-6.5s1.4-4.2,2.2-6.3c0.4-0.9,0.9-1.8,1.5-2.7c0.4-0.6,0.9-1,1.5-1.4
		c0.5-0.3,1-0.5,1.5-0.5c0.5-0.1,1-0.1,1.6-0.1c0.4,0,0.8,0,1.2,0.1c0.3,0,0.6,0.2,0.9,0.4c0.3,0.2,0.5,0.5,0.6,0.8
		C4180,1332.4,4180.1,1332.8,4180.1,1333.3z M4237.9,1378.5c-1.7,0-3.3-0.3-4.8-1c-1.3-0.6-2.5-1.5-3.4-2.7s-1.6-2.5-2.1-3.9
		c-0.5-1.5-0.7-3.1-0.7-4.6c0-1.3,0.2-2.6,0.6-3.9c0.4-1.5,0.8-2.9,1.3-4c0.4-1.2,1-2.3,1.7-3.4c0.6-1,1.4-2,2.3-2.8s1.9-1.5,3-1.9
		c1.2-0.5,2.4-0.7,3.7-0.7c1,0,2.1,0.2,3,0.5s1.7,0.8,2.4,1.5c0.7,0.6,1.3,1.4,1.6,2.3c0.4,1,0.6,2,0.6,3c-0.1,1.4-0.5,2.8-1.2,4.1
		c-0.7,1.4-1.7,2.7-2.8,3.9c-1.1,1.1-2.4,2.1-3.8,2.9c-1.5,0.9-3.1,1.5-4.7,2c0.3,0.5,0.5,0.9,0.9,1.3c0.3,0.3,0.6,0.6,0.9,0.9
		c0.3,0.2,0.6,0.3,0.9,0.4s0.7,0.1,1,0.1c1.3,0,2.5-0.3,3.7-0.7c1.3-0.5,2.6-1.1,3.8-1.8c1.2-0.7,2.4-1.5,3.5-2.3
		c0.3-0.2,0.6-0.5,0.9-0.7c1.1-0.9,2.7-0.8,3.7,0.3l0,0c1.1,1.1,1,2.9-0.1,4c-1.1,1-2.2,1.9-3.4,2.7c-0.8,0.6-1.7,1.2-2.7,1.7
		c-1,0.6-2,1.1-3,1.5c-1.1,0.4-2.2,0.8-3.3,1.1C4240.2,1378.4,4239,1378.5,4237.9,1378.5z M4234,1364.7c0.8,0,1.6-0.2,2.3-0.5
		c0.8-0.4,1.6-0.8,2.3-1.4c0.8-0.7,1.5-1.4,2.1-2.3c0.6-0.7,0.9-1.5,1-2.4c0-0.8-0.1-1.5-0.5-2.2c-0.2-0.5-0.7-0.8-1.2-0.9
		c-0.7,0-1.5,0.1-2.2,0.5c-0.6,0.3-1.1,0.7-1.5,1.2s-0.7,1.1-1,1.7c-0.2,0.6-0.5,1.4-0.8,2.4c-0.3,0.7-0.5,1.5-0.5,2.3
		C4234,1363.8,4234,1364.3,4234,1364.7L4234,1364.7z M4265.5,1343c0,0,0,0.2,0,0.4c0,0.3-0.1,0.5-0.3,0.8c-0.3,0.3-0.6,0.6-1,0.7
		c-0.6,0.2-1.3,0.4-1.9,0.3c-0.9,0-1.8,0-2.7-0.2c-0.5-0.1-1-0.3-1.4-0.5c-0.3-0.2-0.5-0.4-0.6-0.8c-0.1-0.3-0.1-0.6-0.1-0.9
		c-0.1-2.7,0.7-5.3,2.2-7.5c1.6-2.2,3.7-3.9,6.2-5.1c3-1.4,6.2-2.4,9.5-2.9c4.1-0.7,8.2-1,12.3-0.9c3,0,6.1,0.1,9.3,0.3
		c3.3,0.2,6.6,0.5,10.1,1c0.8,0.2,1.5,0.6,2.1,1.2c0.4,0.5,0.6,1,0.6,1.6c0,0.4-0.1,0.8-0.2,1.2c-0.1,0.4-0.3,0.8-0.5,1.1
		c-0.2,0.4-0.5,0.6-0.9,0.9c-0.4,0.2-0.8,0.3-1.3,0.3c-0.1,0-0.2,0-0.2,0c-0.1,0-0.2,0-0.3,0c-1.3-0.2-2.6-0.4-4.1-0.6
		s-3-0.3-4.7-0.4c-1.6-0.1-3.3-0.2-5-0.2s-3.5-0.1-5.3-0.1c-0.5,0-1.2,0-1.9,0.1c-0.7,0.1-1.4,0.1-2.1,0.2c-0.8,0.1-1.6,0.2-2.4,0.3
		c0,0.2,0,0.5-0.1,0.7c0,0.3-0.1,0.7-0.2,1.1c-0.1,0.5-0.2,1.1-0.3,1.9c-0.1,0.8-0.2,1.7-0.4,2.9c-0.2,1.2-0.3,2.7-0.5,4.4
		c-0.2,1.7-0.4,3.7-0.6,6.1h16.3c0.4,0,0.8,0.1,1.1,0.3c0.2,0.2,0.4,0.4,0.6,0.7c0.1,0.3,0.2,0.6,0.2,0.9s0,0.6,0,0.9
		c0.1,0.8-0.2,1.5-0.6,2.1c-0.3,0.4-0.8,0.7-1.3,0.7c-0.1,0-0.6,0-1.3,0c-0.8,0-1.7,0.1-2.8,0.1l-3.6,0.1c-1.3,0-2.6,0.1-3.8,0.1
		c-1.2,0-2.3,0.1-3.3,0.1s-1.8,0-2.3,0c-0.4,2.4-0.8,4.6-1.2,6.8c-0.4,2.1-1,4.1-1.7,6.1c-0.6,1.8-1.4,3.5-2.4,5.2
		c-0.9,1.5-2,2.9-3.3,4s-2.8,2-4.4,2.6c-1.8,0.6-3.8,1-5.7,0.9c-0.4,0-1,0-1.6-0.1c-0.7-0.1-1.3-0.2-2-0.3c-0.7-0.1-1.4-0.3-2-0.5
		s-1.2-0.5-1.8-0.8c-0.5-0.3-0.9-0.7-1.3-1.2c-0.3-0.4-0.5-1-0.5-1.5c0-0.4,0.1-0.8,0.2-1.2c0.1-0.5,0.3-1,0.6-1.4
		c0.3-0.4,0.6-0.8,1-1.2c0.4-0.3,0.9-0.5,1.4-0.5c0.7,0,1.4,0.1,2,0.3c0.7,0.2,1.5,0.5,2.2,0.7c0.8,0.3,1.5,0.5,2.3,0.7
		s1.6,0.3,2.4,0.3c0.7,0,1.4-0.3,1.9-0.8c0.7-0.6,1.3-1.3,1.7-2.1c0.6-1,1.1-2.1,1.5-3.2c0.5-1.2,0.9-2.5,1.4-4
		c0.4-1.4,0.8-2.9,1.2-4.4c0.4-1.5,0.7-3.1,1-4.6h-3.6c-0.4,0-0.8,0-1.2-0.1c-0.5-0.1-1-0.2-1.4-0.4c-0.4-0.2-0.8-0.4-1.1-0.7
		c-0.3-0.3-0.5-0.7-0.5-1.2c0-0.3,0.1-0.7,0.3-0.9c0.2-0.3,0.5-0.5,0.9-0.6l2.9-0.6c0.8-0.2,1.5-0.3,2.2-0.5l1.7-0.3
		c0.5-0.1,0.9-0.2,1.3-0.2c0.5-2.1,0.8-3.9,1.1-5.4c0.3-1.5,0.5-2.9,0.7-4.2c0.2-1.3,0.4-2.4,0.6-3.6c0.2-1.1,0.4-2.3,0.6-3.5
		c-1.5,0.4-3,1-4.4,1.8c-1.1,0.6-2.2,1.3-3.1,2.2c-0.8,0.7-1.4,1.5-1.8,2.4C4265.7,1341.3,4265.5,1342.1,4265.5,1343L4265.5,1343z
		 M4309.1,1355.9c0.6,1.1,1,2.3,1.3,3.6c0.3,1.4,0.4,2.8,0.4,4.3c0,1.2-0.1,2.3-0.4,3.5s-0.6,2.3-1.1,3.4s-1.1,2.1-1.8,3.1
		c-0.7,0.9-1.5,1.8-2.4,2.5s-1.9,1.3-2.9,1.7c-1.1,0.4-2.2,0.6-3.4,0.6c-1.5,0-3.1-0.3-4.4-1.1c-1.2-0.7-2.2-1.7-3-2.9
		c-0.8-1.3-1.4-2.6-1.7-4.1c-0.4-1.5-0.5-3.1-0.5-4.6c0-2.3,0.3-4.5,1-6.7c0.6-1.8,1.5-3.4,2.8-4.9c1.2-1.4,2.7-2.5,4.4-3.3
		c1.8-0.8,3.8-1.2,5.9-1.2c1.8,0,3.5,0.3,5.2,0.9c1.6,0.6,3.1,1.3,4.6,2.3s2.8,2.3,4,3.6c1.2,1.5,2.4,2.9,3.4,4.2l-0.6,4.1
		c-0.6-0.8-1.4-1.6-2.1-2.3c-0.9-0.8-1.9-1.7-2.9-2.7c-0.9-0.9-1.9-1.8-3-2.5c-1-0.7-1.8-1.3-2.5-1.7L4309.1,1355.9z M4300,1372.9
		c0.8,0,1.5-0.4,1.9-1c0.7-0.8,1.2-1.6,1.6-2.5c0.5-1.2,0.9-2.4,1.1-3.7c0.3-1.3,0.4-2.6,0.4-3.9c0-0.8-0.1-1.7-0.2-2.5
		c-0.1-0.7-0.3-1.4-0.6-2c-0.2-0.5-0.6-1-1.1-1.3c-0.4-0.3-1-0.5-1.6-0.5c-0.9,0-1.7,0.4-2.3,1c-0.8,0.8-1.4,1.6-1.9,2.6
		c-0.6,1.1-1,2.3-1.3,3.5c-0.3,1.4-0.5,2.9-0.5,4.4c0,0.8,0.1,1.6,0.2,2.3c0.1,0.7,0.4,1.3,0.7,1.9c0.3,0.5,0.8,1,1.3,1.3
		C4298.7,1372.7,4299.3,1372.9,4300,1372.9z M4316.3,1372.4c0-0.9,0-1.9,0.1-3s0.2-2.3,0.4-3.6c0.2-1.3,0.4-2.6,0.6-3.9
		s0.5-2.7,0.9-4.2s0.7-2.7,0.9-3.7c0.2-0.8,0.5-1.7,0.8-2.5c0.1-0.4,0.3-0.7,0.5-1c0.1-0.2,0.3-0.4,0.5-0.6s0.5-0.3,0.8-0.3
		c0.4-0.1,0.8-0.1,1.1-0.1c0.4,0,0.8,0,1.2,0.1c0.2,0,0.5,0.2,0.6,0.4c0.2,0.2,0.2,0.5,0.2,0.8c0,0.4,0,0.8,0,1.4
		c0,0.7,0,1.7-0.1,3.1c-0.1,1.2-0.1,2.3-0.1,3.5h0.3c0.4-0.8,0.9-1.8,1.5-3.1c0.5-1.1,1.1-2.2,1.8-3.2c0.6-0.8,1.4-1.5,2.2-2.1
		c0.8-0.6,1.8-0.9,2.8-0.9c0.4,0,0.7,0.1,1.1,0.2c0.3,0.1,0.7,0.3,0.9,0.5c0.3,0.2,0.5,0.5,0.6,0.9c0.2,0.4,0.2,0.8,0.2,1.2
		c0,0.5-0.1,0.9-0.1,1.4c-0.1,0.6-0.3,1.4-0.5,2.3s-0.4,1.7-0.5,2.4c-0.1,0.5-0.1,1-0.1,1.5c0,0.6,0.1,1.2,0.2,1.8
		c0.1,0.4,0.3,0.8,0.5,1.1c0.2,0.3,0.5,0.5,0.8,0.6s0.6,0.2,0.9,0.2c0.9,0,1.9-0.2,2.7-0.6c0.9-0.4,1.8-0.8,2.6-1.3
		c0.9-0.6,1.8-1.2,2.7-1.9l-0.4,6.9c-0.5,0.3-1.1,0.7-1.7,1.1c-0.7,0.4-1.4,0.8-2.1,1.2c-0.7,0.4-1.5,0.7-2.3,0.9
		c-0.8,0.2-1.6,0.4-2.4,0.4c-1.2,0.1-2.5-0.3-3.5-0.9c-0.9-0.6-1.6-1.4-2.1-2.3c-0.5-1-0.9-2.1-1.2-3.3c-0.3-1.2-0.5-2.4-0.6-3.6
		h-0.5l-5.3,14.6c-0.2,0.6-0.5,1.3-0.8,1.9c-0.2,0.4-0.5,0.8-0.7,1.2c-0.2,0.3-0.5,0.5-0.8,0.7c-0.3,0.1-0.6,0.2-1,0.2
		c-0.7,0-1.4-0.1-1.9-0.5c-0.5-0.3-0.9-0.8-1.1-1.4c-0.3-0.6-0.5-1.3-0.5-2C4316.4,1373.9,4316.3,1373.1,4316.3,1372.4
		L4316.3,1372.4z M4366,1371.9c-1.9,1.1-3.5,2.1-5,2.9s-2.8,1.5-3.9,2.1c-1,0.5-2,0.9-3,1.2c-0.8,0.3-1.6,0.4-2.4,0.4
		c-1.4,0-2.8-0.5-3.9-1.3c-1.2-1-2.2-2.4-2.8-3.9c-0.8-2-1.4-4-1.7-6.1c-0.4-2.7-0.6-5.4-0.6-8.1c0-1.2,0-2.4,0.1-3.8
		c0.1-1.3,0.2-2.6,0.4-4c-0.6-0.1-1-0.2-1.4-0.2c-0.3-0.1-0.7-0.1-1-0.2c-0.4-0.1-0.8-0.1-1.4-0.2s-1.4-0.2-2.4-0.3
		c-0.4,0-0.8-0.1-1.1-0.3c-0.2-0.1-0.4-0.3-0.6-0.6c-0.1-0.2-0.2-0.5-0.2-0.7s0-0.5,0-0.6c0-0.4,0.2-0.7,0.6-0.9
		c0.5-0.2,1-0.4,1.5-0.5c0.6-0.1,1.3-0.2,2-0.2s1.4,0,2.1,0s1.2,0,1.8,0c0.4,0,0.7,0,1.1,0c0.5-2.6,1.2-5.1,2-7.7
		c0.7-2.3,1.6-4.5,2.7-6.6c0.9-1.7,2-3.3,3.3-4.6c1-1.1,2.3-1.7,3.8-1.7c0.8,0,1.6,0.2,2.3,0.7c0.7,0.5,1.3,1.1,1.8,1.9
		s0.9,1.8,1.1,2.7c0.3,1.1,0.4,2.2,0.4,3.3c0,1-0.1,2-0.4,3c-0.3,1.1-0.7,2.2-1.1,3.3c-0.5,1.1-1,2.3-1.7,3.4
		c-0.6,1.1-1.3,2.3-2,3.4c0.2,0,0.5,0,0.9,0s0.9,0,1.4,0s1.1,0.1,1.7,0.1s1.2,0.1,1.8,0.1c0.6,0,1.1,0,1.6,0.1c0.5,0,0.9,0,1.3,0.1
		c0.4,0,0.7,0.2,0.9,0.6c0.2,0.4,0.3,0.9,0.3,1.4c0,0.6-0.2,1.2-0.6,1.7c-0.3,0.4-0.8,0.6-1.3,0.6h-11.2c-0.6,0.8-1.1,1.5-1.7,2.3
		s-1.1,1.4-1.6,2c-0.1,1.2-0.1,2.4-0.2,3.6c0,0.5,0,1-0.1,1.6c0,0.5,0,1.1-0.1,1.6c0,0.5,0,1,0,1.5s0,0.9,0,1.3
		c0,0.9,0.1,1.8,0.3,2.7c0.2,0.6,0.4,1.2,0.9,1.8c0.4,0.4,0.8,0.8,1.4,1s1.2,0.3,1.8,0.3c0.5,0,1-0.1,1.5-0.3c0.7-0.2,1.4-0.5,2-0.8
		c0.7-0.3,1.5-0.7,2.3-1.2s1.6-1,2.4-1.5c0.8-0.6,1.5-1.1,2.3-1.8c0.7-0.6,1.3-1.2,2-1.9L4366,1371.9z M4356.6,1334.8
		c0-0.2,0-0.5,0-0.7c0-0.3-0.1-0.5-0.2-0.7s-0.3-0.4-0.5-0.6c-0.3-0.2-0.6-0.3-0.9-0.2c-0.5,0-1,0.4-1.5,1.3
		c-0.6,1.1-1.1,2.3-1.5,3.4c-0.5,1.4-0.9,2.9-1.3,4.6s-0.8,3.3-1.2,4.9c0.3,0,0.6,0.1,0.9,0.1s0.6,0.1,0.9,0.1
		c0.6-1,1.2-2.1,1.8-3.2c0.6-1.2,1.2-2.3,1.7-3.4s0.9-2.2,1.3-3.1C4356.4,1336.5,4356.6,1335.7,4356.6,1334.8L4356.6,1334.8z
		 M4385.9,1351.2c0,0.7-0.1,1.4-0.2,2.2c-0.1,0.9-0.3,1.9-0.5,3s-0.4,2.4-0.8,3.9c-0.3,1.5-0.6,2.8-0.8,3.8c-0.2,1-0.3,1.9-0.5,2.6
		c-0.1,0.5-0.2,1-0.2,1.6c0,0.5,0,1,0,1.5c0,0.4,0.1,0.8,0.2,1.2c0.1,0.3,0.2,0.6,0.5,0.8c0.3,0.2,0.6,0.3,0.9,0.3
		c0.5,0,1.1-0.1,1.6-0.3c0.7-0.2,1.3-0.5,2-0.9s1.4-0.8,2.1-1.2c0.7-0.5,1.4-0.9,2.1-1.4s1.2-1,1.8-1.5c0.5-0.4,0.9-0.9,1.3-1.4
		c0,0.6,0,1.2,0,1.8c0,0.5,0,1,0,1.5s0,1,0,1.5s0,1.1,0,1.7c-0.5,0.5-1,1-1.6,1.4c-0.6,0.5-1.3,1-2.1,1.5c-0.8,0.5-1.6,1-2.5,1.4
		s-1.7,0.8-2.6,1.2c-0.8,0.3-1.7,0.6-2.6,0.8c-0.8,0.2-1.6,0.3-2.4,0.3c-0.7,0-1.3-0.1-1.9-0.4c-0.5-0.3-1-0.7-1.4-1.2
		c-0.4-0.6-0.7-1.2-1-1.9c-0.3-0.8-0.5-1.6-0.7-2.5c-0.7,0.9-1.4,1.7-2.2,2.5c-0.7,0.7-1.5,1.4-2.4,2c-0.8,0.5-1.6,1-2.5,1.3
		c-0.8,0.3-1.6,0.5-2.4,0.5c-0.6,0-1.2-0.1-1.8-0.3c-0.6-0.2-1.1-0.6-1.5-1.1c-0.5-0.6-0.8-1.3-1-2c-0.3-1-0.4-2-0.4-3.1
		c0-2,0.1-4,0.6-5.9c0.8-2.9,1.3-5.9,1.6-8.9c0-0.3,0.1-0.7,0.2-1.2s0.3-1,0.4-1.6c0.2-0.6,0.4-1.2,0.7-1.8c0.3-0.6,0.6-1.1,1-1.6
		s0.8-0.9,1.3-1.2c0.5-0.3,1.1-0.5,1.7-0.5c0.8,0,1.5,0.1,2.2,0.4c0.4,0.2,0.7,0.5,0.7,0.8c-0.2,1-0.4,2.2-0.6,3.5s-0.4,2.6-0.6,3.8
		c-0.2,1.3-0.5,2.7-0.8,4.3s-0.5,2.9-0.7,3.8c-0.2,1-0.3,1.7-0.4,2.3c-0.1,0.6-0.1,0.9-0.1,0.9c0,0.3,0,0.7,0.1,1s0.2,0.6,0.3,0.9
		c0.1,0.2,0.3,0.5,0.5,0.6c0.2,0.2,0.5,0.2,0.8,0.2c0.5,0,0.9-0.1,1.3-0.3c0.5-0.2,0.9-0.6,1.3-1s0.8-1,1.1-1.5
		c0.3-0.7,0.6-1.4,0.7-2.1l3.2-16c0.1-0.5,0.5-0.9,1.2-1.2c0.7-0.3,1.5-0.5,2.4-0.5c0.8,0,1.6,0.1,2.4,0.5
		C4385.6,1350.1,4385.9,1350.6,4385.9,1351.2z M4392.1,1372.4c0-1.3,0.1-2.8,0.2-4.5c0.2-1.7,0.4-3.5,0.6-5.6c0.2-2,0.5-3.8,0.8-5.5
		s0.6-3,0.9-4.2c0.2-0.9,0.6-1.6,1.2-2.3c0.7-0.6,1.6-1,2.5-0.9c0.9-0.1,1.7,0.3,2.2,1c0.4,0.8,0.7,1.7,0.6,2.6c0,0.4,0,0.8-0.1,1.2
		c-0.1,0.5-0.1,1-0.2,1.6s-0.2,1.2-0.3,1.8c-0.1,0.6-0.2,1.4-0.3,2.2s-0.2,1.4-0.2,1.8c0,0.3-0.1,0.5-0.1,0.8h0.6
		c0.1-0.2,0.3-0.6,0.6-1c0.3-0.7,0.6-1.4,0.9-2.1c0.3-0.8,0.7-1.6,1.1-2.4c0.4-0.7,0.7-1.4,1.1-2c0.3-0.6,0.6-1.2,0.9-1.7
		s0.5-0.8,0.6-1.1c0.5-0.9,1.2-1.7,2.1-2.2c0.8-0.4,1.7-0.6,2.7-0.6c0.9,0,1.8,0.4,2.3,1.2c0.6,1,0.9,2.2,0.9,3.4
		c0,0.4-0.1,0.7-0.1,1.1c-0.1,0.5-0.2,1.1-0.3,1.8s-0.3,1.6-0.5,2.7s-0.3,2.1-0.5,3s-0.2,1.7-0.3,2.6c-0.1,0.8-0.1,1.6-0.1,2.4
		c0,1,0.1,2,0.5,3c0.2,0.7,0.7,1.1,1.4,1.2c0.3,0,0.7-0.1,1-0.3c0.4-0.1,0.9-0.3,1.2-0.6c0.4-0.4,0.9-0.7,1.3-1
		c0.7-0.3,1.3-0.7,2-1.2c1.6-1,3.4-2.2,5.6-3.7v6.6l-1.5,1.1c-0.1,0.1-1,0.6-2.8,1.5c-2.5,1.3-4,2.1-4.7,2.4
		c-0.9,0.4-1.9,0.8-2.8,1.2c-1,0.3-2,0.5-3.1,0.5s-2-0.8-2.7-2.3c-0.8-2.2-1.2-4.5-1.1-6.8c0-1.3,0.1-2.5,0.2-3.8
		c0.2-1.4,0.4-2.8,0.6-4.4h-0.5l-7.7,15.2c-0.3,0.7-0.7,1.2-1.3,1.6c-0.5,0.3-1.1,0.5-1.7,0.4c-0.7,0-1.4-0.1-1.9-0.5
		c-0.5-0.3-0.9-0.8-1.1-1.4c-0.3-0.6-0.5-1.3-0.5-2C4392.2,1373.9,4392.1,1373.1,4392.1,1372.4L4392.1,1372.4z M4430.4,1378.5
		c-1.7,0-3.3-0.3-4.8-1c-1.3-0.6-2.5-1.5-3.4-2.7s-1.6-2.5-2.1-3.9c-0.5-1.5-0.7-3.1-0.7-4.6c0-1.3,0.2-2.6,0.6-3.9
		c0.4-1.5,0.8-2.9,1.3-4c0.4-1.2,1-2.3,1.7-3.4c0.6-1,1.4-2,2.3-2.8s1.9-1.5,3-1.9c1.2-0.5,2.4-0.7,3.7-0.7c1,0,2.1,0.2,3,0.5
		s1.7,0.8,2.4,1.5c0.7,0.6,1.3,1.4,1.6,2.3c0.4,1,0.6,2,0.6,3c-0.1,1.4-0.5,2.8-1.2,4.1c-0.7,1.4-1.7,2.7-2.8,3.9
		c-1.1,1.1-2.4,2.1-3.8,2.9c-1.5,0.9-3.1,1.5-4.7,2c0.3,0.5,0.5,0.9,0.9,1.3c0.2,0.3,0.5,0.6,0.9,0.8c0.3,0.2,0.6,0.3,0.9,0.4
		s0.7,0.1,1,0.1c1.3,0,2.5-0.3,3.7-0.7c1.3-0.5,2.6-1.1,3.8-1.8c1.2-0.7,2.4-1.5,3.5-2.3c1-0.7,1.9-1.5,2.8-2.4l3.8,3.9
		c-1.7,1.7-3.5,3.3-5.5,4.7c-0.8,0.6-1.7,1.2-2.7,1.7c-1,0.6-2,1.1-3,1.5c-1.1,0.4-2.2,0.8-3.3,1
		C4432.8,1378.4,4431.6,1378.5,4430.4,1378.5z M4426.5,1364.7c0.8,0,1.6-0.2,2.3-0.5c0.8-0.4,1.6-0.8,2.3-1.4
		c0.8-0.7,1.5-1.4,2.1-2.3c0.6-0.7,0.9-1.5,1-2.4c0-0.8-0.1-1.5-0.5-2.2c-0.2-0.5-0.7-0.8-1.2-0.9c-0.7,0-1.5,0.1-2.2,0.5
		c-0.6,0.3-1.1,0.7-1.5,1.2s-0.7,1.1-1,1.7c-0.2,0.6-0.5,1.4-0.8,2.4c-0.3,0.7-0.5,1.5-0.5,2.3
		C4426.6,1363.8,4426.5,1364.3,4426.5,1364.7L4426.5,1364.7z M4490.6,1368.6c-1,0.4-1.9,1-2.8,1.6c-0.9,0.7-1.8,1.4-2.7,2.2
		s-1.9,1.6-2.9,2.5s-2.1,1.8-3.2,2.6c-1.2,0.9-2.4,1.7-3.7,2.5c-1.4,0.8-2.9,1.5-4.5,2.1c-1.8,0.6-3.6,1.1-5.4,1.4
		c-2.2,0.4-4.3,0.5-6.5,0.5c-2.5,0-4.9-0.5-7.1-1.6c-2.1-1-3.9-2.5-5.4-4.3c-1.5-1.9-2.7-4-3.5-6.3c-0.8-2.4-1.2-5-1.2-7.5
		c0-1.9,0.2-3.9,0.6-5.8c0.4-2.1,1-4.2,1.7-6.3c0.8-2.2,1.6-4.3,2.7-6.4s2.2-4.2,3.6-6.1c1.3-1.9,2.8-3.7,4.4-5.4
		c1.6-1.6,3.3-3.1,5.1-4.4c1.8-1.2,3.7-2.2,5.7-2.9c2-0.7,4.1-1.1,6.3-1.1c1.5,0,2.9,0.3,4.3,0.7c1.4,0.5,2.8,1.3,3.9,2.3
		c1.2,1.1,2.2,2.4,2.8,3.9c0.8,1.8,1.1,3.7,1.1,5.6c0,1.5-0.2,3-0.7,4.4c-0.5,1.5-1.1,2.9-1.9,4.2c-0.8,1.4-1.8,2.6-2.8,3.8
		c-1,1.2-2.2,2.2-3.5,3.1c-1.2,0.8-2.5,1.5-3.9,2.1c-1.3,0.5-2.7,0.8-4,0.8c-1.4,0.1-2.7-0.2-4-0.7c-0.8-0.4-1.3-1.2-1.3-2.1
		c0-0.2,0-0.3,0-0.6c0-0.2,0-0.4,0-0.7c0-0.4,0-0.7,0.1-1.1c0-0.4,0.1-0.7,0.2-1s0.3-0.6,0.5-0.8c0.3-0.2,0.6-0.3,0.9-0.3
		c0.2,0,0.4,0,0.6,0.1s0.4,0.1,0.6,0.2c0.3,0.1,0.5,0.2,0.8,0.2c0.4,0.1,0.8,0.1,1.2,0.1c1.3,0,2.6-0.3,3.8-0.8
		c1.3-0.6,2.5-1.3,3.5-2.3s1.9-2.2,2.5-3.6c0.7-1.4,1-3,1-4.6c0-0.8-0.1-1.7-0.4-2.5c-0.2-0.8-0.6-1.5-1.1-2.1
		c-0.6-0.6-1.3-1.1-2-1.4c-1-0.4-2-0.6-3-0.5c-1.4,0-2.8,0.3-4.1,0.9c-1.4,0.7-2.7,1.5-3.9,2.5c-1.3,1.1-2.5,2.4-3.5,3.8
		c-1.1,1.5-2.1,3-3.1,4.6c-0.9,1.7-1.8,3.4-2.5,5.2c-0.7,1.7-1.4,3.5-1.9,5.3c-0.5,1.7-0.9,3.4-1.2,5.2c-0.3,1.5-0.4,3.1-0.4,4.6
		c0,1.8,0.2,3.6,0.7,5.3c0.4,1.4,1.2,2.7,2.1,3.7s2.1,1.8,3.4,2.2c1.4,0.5,3,0.8,4.5,0.7c2,0,3.9-0.2,5.8-0.8c1.8-0.5,3.5-1.2,5.1-2
		s3.2-1.8,4.7-2.8c1.5-1.1,3-2.1,4.5-3.2s3.1-2.1,4.6-3c1.6-1,3.3-1.8,5-2.4L4490.6,1368.6z M4517.5,1371.3
		c-0.6,0.8-1.2,1.5-1.8,2.2c-0.8,0.9-1.6,1.7-2.5,2.4c-0.9,0.8-1.9,1.4-3,1.9c-1,0.5-2.1,0.8-3.2,0.8c-1.2,0-2.4-0.4-3.2-1.2
		c-1-1-1.7-2.3-2.2-3.6c-0.5,0.6-1.1,1.2-1.7,1.7c-0.7,0.6-1.5,1.1-2.2,1.5c-0.8,0.5-1.7,0.8-2.5,1.1c-0.8,0.3-1.7,0.4-2.6,0.4
		s-1.9-0.2-2.7-0.6c-0.9-0.4-1.7-0.9-2.4-1.6c-0.7-0.8-1.3-1.6-1.6-2.6c-0.4-1.1-0.6-2.3-0.6-3.5c0-1.5,0.2-3,0.6-4.5
		c0.5-1.7,1.1-3.4,1.9-5s1.7-3.2,2.8-4.7c0.9-1.3,2-2.4,3.2-3.4c1.1-0.9,2.4-1.7,3.7-2.3c1.2-0.6,2.6-0.9,4-0.9
		c0.4,0,0.7,0.1,1.1,0.3c0.2,0.2,0.5,0.4,0.6,0.6c0.2,0.2,0.3,0.4,0.5,0.7c0.1,0.2,0.4,0.4,0.6,0.5s0.5,0.2,0.7,0.2s0.5,0,0.7,0
		s0.4,0,0.7,0c0.2,0,0.4,0,0.7,0c0.3,0,0.6,0,0.8,0.1c0.3,0.1,0.5,0.2,0.7,0.4c0.2,0.2,0.4,0.5,0.5,0.8c0.1,0.5,0.2,1,0.2,1.4
		c0,1-0.1,2.1-0.3,3.1c-0.2,1.1-0.4,2.3-0.6,3.5s-0.5,2.6-0.9,4.1c-0.3,1.3-0.5,2.6-0.5,3.9c0,0.7,0.1,1.5,0.2,2.2
		c0.1,0.5,0.6,0.8,1.1,0.8c0.4,0,0.9-0.1,1.3-0.3c0.5-0.2,0.9-0.5,1.4-0.8s0.9-0.7,1.4-1.1s0.9-0.9,1.3-1.3c1-1.1,2-2.3,2.9-3.6
		L4517.5,1371.3z M4492.5,1369c0,0.5,0,1,0.1,1.4s0.2,0.8,0.4,1.2c0.2,0.3,0.4,0.6,0.7,0.9c0.3,0.2,0.7,0.4,1.1,0.3
		c0.8,0,1.5-0.4,2-0.9c0.6-0.7,1.1-1.4,1.5-2.3s0.8-1.8,1-2.7c0.2-0.8,0.4-1.6,0.5-2.3l2.2-9.6c-0.8,0-1.6,0.2-2.3,0.6
		c-0.8,0.4-1.5,1-2.2,1.6c-0.7,0.7-1.3,1.5-1.9,2.3c-0.6,1-1.2,2.1-1.7,3.3c-0.5,1.1-0.9,2.2-1.2,3.4
		C4492.6,1367.2,4492.5,1368.1,4492.5,1369L4492.5,1369z M4537.9,1369.2c0.6,0.8,0.8,1.9,0.2,2.7c-0.2,0.3-0.5,0.6-0.9,0.8
		c-1.3,0.8-2.5,1.5-3.6,2.1c-1.5,0.8-2.8,1.5-3.9,2.1c-1,0.5-2,0.9-3,1.2c-0.8,0.3-1.6,0.4-2.4,0.4c-1.4,0-2.8-0.5-3.9-1.3
		c-1.2-1-2.2-2.4-2.8-3.9c-0.8-2-1.4-4-1.7-6.1c-0.4-2.7-0.6-5.4-0.6-8.1c0-1.2,0-2.4,0.1-3.8c0.1-1.3,0.2-2.6,0.4-3.9l0,0
		c-0.6-0.1-1-0.2-1.3-0.2c-0.3-0.1-0.7-0.1-1-0.2c-0.4-0.1-0.8-0.1-1.4-0.2s-1.4-0.2-2.4-0.3c-0.4,0-0.8-0.1-1.1-0.3
		c-0.2-0.1-0.4-0.3-0.6-0.6c-0.1-0.2-0.2-0.5-0.2-0.7s0-0.4,0-0.5c0-0.4,0.3-0.8,0.7-1c0.4-0.2,0.9-0.3,1.4-0.4
		c0.6-0.1,1.3-0.2,2-0.2s1.4,0,2.1,0s1.2,0,1.8,0c0.4,0,0.7,0,1.1,0c0.5-2.6,1.2-5.1,2-7.7c0.7-2.3,1.6-4.5,2.7-6.6
		c0.9-1.7,2-3.3,3.3-4.6c1-1.1,2.3-1.7,3.8-1.7c0.8,0,1.6,0.2,2.3,0.7c0.7,0.5,1.3,1.1,1.8,1.9s0.9,1.8,1.1,2.7
		c0.2,0.8,0.3,1.7,0.4,2.5c0.1,1.4-0.3,3.7-0.8,5.1c-0.2,0.7-0.5,1.3-0.7,1.9c-0.5,1.1-1,2.3-1.7,3.4c-0.6,1.1-1.3,2.3-2,3.4
		c0.2,0,0.5,0,0.9,0s0.9,0,1.4,0s1.1,0.1,1.7,0.1s1.2,0.1,1.8,0.1c0.6,0,1.1,0,1.6,0.1c0.5,0,0.9,0,1.2,0.1c0.4,0,0.7,0.3,0.9,0.6
		c0.2,0.4,0.3,0.9,0.3,1.4c0,0.6-0.2,1.2-0.6,1.7c-0.3,0.4-0.8,0.6-1.3,0.6h-11.2l0,0c-0.6,0.8-1.1,1.5-1.7,2.3s-1.1,1.4-1.6,2l0,0
		c-0.1,1.2-0.1,2.4-0.2,3.6c0,0.5,0,1-0.1,1.6c0,0.5,0,1.1-0.1,1.6c0,0.5,0,1,0,1.5s0,0.9,0,1.3c0,0.9,0.1,1.8,0.3,2.7
		c0.2,0.6,0.4,1.2,0.8,1.8c0.4,0.5,0.9,0.8,1.4,1c0.6,0.2,1.1,0.3,1.7,0.3c0.5,0,1-0.1,1.5-0.3c0.7-0.2,1.4-0.5,2-0.8
		c0.7-0.3,1.5-0.7,2.3-1.2s1.6-1.1,2.4-1.5C4536.1,1367.6,4537.2,1368.4,4537.9,1369.2z M4530.2,1334.8c0-0.2,0-0.5,0-0.7
		c0-0.3-0.1-0.5-0.2-0.7s-0.3-0.4-0.5-0.6c-0.3-0.2-0.6-0.3-0.9-0.2c-0.5,0-1,0.4-1.5,1.3c-0.6,1.1-1.1,2.3-1.5,3.4
		c-0.5,1.4-0.9,2.9-1.3,4.6s-0.8,3.3-1.2,4.9c0.3,0,0.6,0.1,0.9,0.1s0.6,0.1,0.9,0.1c0.6-1,1.2-2.1,1.8-3.2c0.6-1.2,1.2-2.3,1.7-3.4
		s0.9-2.2,1.3-3.1C4530,1336.5,4530.2,1335.7,4530.2,1334.8z"/>
	<g>
		<path d="M4354.8,1187c0,0,6.3,0,9.9,2.5c3.6,2.5,7.1,6.6,7.1,6.6s6.3-1.4,8.2-2.2c1.9-0.8,5.2-1.6,6-0.3c0.5,0.8,1.1,6.6-4.1,10.7
			c-3.3,2.7-6.3,3-6.3,3s2.7,10.2-3.3,19.8c-3.6,5.8-11.5,6.6-17.6,5.5c0,0-1.4,8.8,1.4,22.5s12.6,28.6,14.8,35.4
			c2.7,7.4,0.5,12.9-1.1,15.7c2.2-1.1,12.6-11.8,13.5-30.8c0.8-22-2.2-33-2.2-33s5.8,3.8,7.4,27.2c1.6,23.1-3.6,34.3-6.9,39
			c-2.7,3.8-6.6,7.4-12.9,9.1c-9.6,2.5-23.6,2.2-33.5,1.4c-7.1-0.5-14.8-4.1-16.8-10.2c-0.5-2.7-0.5-11.5,0.8-21.2
			c0.3-3,5.5-31,5.5-31s-4.4,0-4.9-4.9c-0.8-6.6,1.6-25.3,1.6-25.3s-3.6,1.6-5.8-0.3c-1.9-1.6-3.3-3.8-2.2-8.2
			c1.1-4.4,6-5.8,9.6-5.5c3.6,0.3,6,3.3,6,3.3s-4.1-6.3-0.8-13.5c3.6-7.7,10.4-10.4,10.4-10.4s-1.6-9.1,6-17.6
			c6.6-7.4,8.8-0.5,8.8-0.5L4354.8,1187z M4326.3,1238.4c-0.5,7.7,6,11.5,6,11.5s6.3-6,8-22.5c-1.9-0.8-8.5-5.5-9.6-8.8
			C4331.5,1221.3,4327.1,1228.5,4326.3,1238.4z"/>
		<path class="st1" d="M4332,1281.2l-20.1-7.1c-3.6-1.4-5.5-5.2-4.4-9.1l0,0c1.4-3.6,5.2-5.5,9.1-4.4l20.1,7.1
			c3.6,1.4,5.5,5.2,4.4,9.1l0,0C4339.7,1280.7,4335.6,1282.6,4332,1281.2z"/>
		<path class="st2" d="M4334.9,1304.6c-2.5-1.6-4.4-3.8-6.9-4.7c-2.5-0.8-5.5,0-8.2-0.3c-8.2-0.8-15.1-4.7-19.8-11.3
			c-9.1-12.6-4.1-27.5,10.7-33c13.2-4.9,29.7,1.4,35.7,13.2c5.2,10.4,1.9,22-8.5,27.5c-3,1.6-4.4,3.3-3.3,6.3
			C4335.2,1303.2,4334.9,1304,4334.9,1304.6z M4313.2,1271.9c1.6,0,3.3-1.1,3.3-2.7c0.3-1.9-1.1-3.3-3-3.6c-1.6,0-3.3,1.4-3.3,3
			C4309.9,1270.5,4311.3,1271.9,4313.2,1271.9z M4330,1269.7c-1.6,0-3,1.1-3.3,2.7c0,1.9,1.4,3.6,3,3.6s3-1.1,3.3-2.7
			C4333.3,1271.3,4331.9,1269.7,4330,1269.7z"/>
	</g>
</g>
</svg>
